<svg width="24" height="27" viewBox="0 0 24 27" fill="none" xmlns="http://www.w3.org/2000/svg">
<path d="M23.028 5.94017L12.948 0.252174C12.6594 0.086931 12.3326 0 12 0C11.6674 0 11.3406 0.086931 11.052 0.252174L0.972 5.94017C0.676996 6.11049 0.431924 6.35534 0.261334 6.65019C0.0907433 6.94504 0.000622978 7.27953 0 7.62017V18.9722C0.000622978 19.3128 0.0907433 19.6473 0.261334 19.9422C0.431924 20.237 0.676996 20.4819 0.972 20.6522L11.052 26.3402C11.3406 26.5054 11.6674 26.5923 12 26.5923C12.3326 26.5923 12.6594 26.5054 12.948 26.3402L23.028 20.6522C23.323 20.4819 23.5681 20.237 23.7387 19.9422C23.9093 19.6473 23.9994 19.3128 24 18.9722V7.62017C23.9994 7.27953 23.9093 6.94504 23.7387 6.65019C23.5681 6.35534 23.323 6.11049 23.028 5.94017ZM12 17.6162C11.1456 17.6162 10.3104 17.3628 9.59994 16.8881C8.88952 16.4134 8.33581 15.7387 8.00884 14.9494C7.68187 14.16 7.59632 13.2914 7.76301 12.4534C7.9297 11.6154 8.34114 10.8456 8.9453 10.2415C9.54946 9.63731 10.3192 9.22587 11.1572 9.05918C11.9952 8.89249 12.8638 8.97804 13.6532 9.30501C14.4426 9.63198 15.1173 10.1857 15.5919 10.8961C16.0666 11.6065 16.32 12.4418 16.32 13.2962C16.32 14.4419 15.8649 15.5407 15.0547 16.3509C14.2445 17.161 13.1457 17.6162 12 17.6162Z" fill="white"/>
</svg>
