<svg width="19" height="13" viewBox="0 0 19 13" fill="none" xmlns="http://www.w3.org/2000/svg">
<path d="M9.41469 12.4062C6.61578 12.4062 3.96716 11.2204 1.9551 9.06725C1.70769 8.80278 0.0480332 6.74741 0.312502 6.5C0.577627 6.25259 2.28125 7.8125 2.91453 8.17147C5.15835 9.44336 6.98328 11.0938 9.41469 11.0938C12.5404 11.0938 15.4187 9.38422 17.1847 6.5C15.4194 3.61578 12.5404 1.90625 9.41469 1.90625C6.17413 1.90625 3.19865 3.94908 1.45434 7.02821C1.27584 7.34386 0.555306 7.0361 0.715116 7.15625C0.39946 6.97775 0.134002 6.49212 0.312502 6.17647C2.29241 2.68062 5.69572 0.59375 9.41469 0.59375C13.1343 0.59375 16.537 2.68062 18.5169 6.17647C18.6304 6.37728 18.6304 6.62272 18.5169 6.82288C16.537 10.3187 13.1343 12.4062 9.41469 12.4062Z" fill="#B2ACB2"/>
<path d="M9.5 9.78125C7.69072 9.78125 6.21875 8.30928 6.21875 6.5C6.21875 4.69072 7.69072 3.21875 9.5 3.21875C11.3093 3.21875 12.7812 4.69072 12.7812 6.5C12.7812 8.30928 11.3093 9.78125 9.5 9.78125ZM9.5 4.53125C8.41456 4.53125 7.53125 5.41456 7.53125 6.5C7.53125 7.58544 8.41456 8.46875 9.5 8.46875C10.5854 8.46875 11.4688 7.58544 11.4688 6.5C11.4688 5.41456 10.5854 4.53125 9.5 4.53125Z" fill="#B2ACB2"/>
</svg>
