<svg width="25" height="28" viewBox="0 0 25 28" fill="none" xmlns="http://www.w3.org/2000/svg">
<path d="M23 10H18.5V6.5C18.5 5.04131 17.9205 3.64236 16.8891 2.61091C15.8576 1.57946 14.4587 1 13 1C11.5413 1 10.1424 1.57946 9.11091 2.61091C8.07946 3.64236 7.5 5.04131 7.5 6.5V10H3C2.46957 10 1.96086 10.2107 1.58579 10.5858C1.21071 10.9609 1 11.4696 1 12V26C1 26.5304 1.21071 27.0391 1.58579 27.4142C1.96086 27.7893 2.46957 28 3 28H23C23.5304 28 24.0391 27.7893 24.4142 27.4142C24.7893 27.0391 25 26.5304 25 26V12C25 11.4696 24.7893 10.9609 24.4142 10.5858C24.0391 10.2107 23.5304 10 23 10ZM13 20.5C12.7033 20.5 12.4133 20.412 12.1666 20.2472C11.92 20.0824 11.7277 19.8481 11.6142 19.574C11.5006 19.2999 11.4709 18.9983 11.5288 18.7074C11.5867 18.4164 11.7296 18.1491 11.9393 17.9393C12.1491 17.7296 12.4164 17.5867 12.7074 17.5288C12.9983 17.4709 13.2999 17.5007 13.574 17.6142C13.8481 17.7277 14.0824 17.92 14.2472 18.1666C14.412 18.4133 14.5 18.7033 14.5 19C14.5 19.3978 14.342 19.7794 14.0607 20.0607C13.7794 20.342 13.3978 20.5 13 20.5ZM16.5 10H9.5V6.5C9.5 5.57174 9.86875 4.6815 10.5251 4.02513C11.1815 3.36875 12.0717 3 13 3C13.9283 3 14.8185 3.36875 15.4749 4.02513C16.1313 4.6815 16.5 5.57174 16.5 6.5V10Z" fill="white"/>
</svg>
