<svg width="18" height="24" viewBox="0 0 24 30" fill="none" xmlns="http://www.w3.org/2000/svg">
<path d="M21 30H3C2.20435 30 1.44129 29.6839 0.87868 29.1213C0.316071 28.5587 0 27.7956 0 27V16C0 15.2044 0.316071 14.4413 0.87868 13.8787C1.44129 13.3161 2.20435 13 3 13H21C21.7956 13 22.5587 13.3161 23.1213 13.8787C23.6839 14.4413 24 15.2044 24 16V27C24 27.7956 23.6839 28.5587 23.1213 29.1213C22.5587 29.6839 21.7956 30 21 30ZM3 15C2.73478 15 2.48043 15.1054 2.29289 15.2929C2.10536 15.4804 2 15.7348 2 16V27C2 27.2652 2.10536 27.5196 2.29289 27.7071C2.48043 27.8946 2.73478 28 3 28H21C21.2652 28 21.5196 27.8946 21.7071 27.7071C21.8946 27.5196 22 27.2652 22 27V16C22 15.7348 21.8946 15.4804 21.7071 15.2929C21.5196 15.1054 21.2652 15 21 15H3Z" fill="white"/>
<path d="M20 15H4C3.73478 15 3.48043 14.8946 3.29289 14.7071C3.10536 14.5196 3 14.2652 3 14V8C3 5.87827 3.84285 3.84344 5.34315 2.34315C6.84344 0.842855 8.87827 0 11 0H13C15.1217 0 17.1566 0.842855 18.6569 2.34315C20.1571 3.84344 21 5.87827 21 8V14C21 14.2652 20.8946 14.5196 20.7071 14.7071C20.5196 14.8946 20.2652 15 20 15ZM5 13H19V8C19 6.4087 18.3679 4.88258 17.2426 3.75736C16.1174 2.63214 14.5913 2 13 2H11C9.4087 2 7.88258 2.63214 6.75736 3.75736C5.63214 4.88258 5 6.4087 5 8V13Z" fill="white"/>
<path d="M12 22C11.6044 22 11.2178 21.8827 10.8889 21.6629C10.56 21.4432 10.3036 21.1308 10.1522 20.7654C10.0009 20.3999 9.96126 19.9978 10.0384 19.6098C10.1156 19.2219 10.3061 18.8655 10.5858 18.5858C10.8655 18.3061 11.2219 18.1156 11.6098 18.0384C11.9978 17.9613 12.3999 18.0009 12.7654 18.1522C13.1308 18.3036 13.4432 18.56 13.6629 18.8889C13.8827 19.2178 14 19.6044 14 20C14 20.5304 13.7893 21.0391 13.4142 21.4142C13.0391 21.7893 12.5304 22 12 22Z" fill="white"/>
<path d="M13 21H11V25H13V21Z" fill="white"/>
</svg>
